<svg width="48" height="49" viewBox="0 0 48 49" fill="none" xmlns="http://www.w3.org/2000/svg">
<circle cx="24" cy="24.4492" r="21" fill="black"/>
<path fill-rule="evenodd" clip-rule="evenodd" d="M23.168 9.70114C23.6718 9.36524 24.3282 9.36524 24.832 9.70114L38.3321 18.7011C38.7493 18.9793 39 19.4477 39 19.9492V28.9492C39 29.4507 38.7493 29.9191 38.3321 30.1973L24.832 39.1973C24.3282 39.5332 23.6718 39.5332 23.168 39.1973L9.66795 30.1973C9.25065 29.9191 9 29.4507 9 28.9492V19.9492C9 19.4477 9.25065 18.9793 9.66795 18.7011L23.168 9.70114ZM12 22.752L14.5458 24.4492L12 26.1464V22.752ZM13.2042 28.9492L22.5 35.1464V29.752L17.25 26.252L13.2042 28.9492ZM19.9542 24.4492L24 27.1464L28.0458 24.4492L24 21.752L19.9542 24.4492ZM25.5 19.1464L30.75 22.6464L34.7958 19.9492L25.5 13.752V19.1464ZM22.5 13.752V19.1464L17.25 22.6464L13.2042 19.9492L22.5 13.752ZM36 22.752L33.4542 24.4492L36 26.1464V22.752ZM34.7958 28.9492L30.75 26.252L25.5 29.752V35.1464L34.7958 28.9492Z" fill="white"/>
</svg>
