<svg width="48" height="49" viewBox="0 0 48 49" fill="none" xmlns="http://www.w3.org/2000/svg">
<path fill-rule="evenodd" clip-rule="evenodd" d="M7.30547 33.9316C6.93315 34.5635 6.51499 35.2967 6.15985 35.8809C5.84197 36.44 6.01262 37.161 6.54364 37.5024L13.9902 42.2715C14.2515 42.4394 14.5668 42.4911 14.8651 42.4149C15.1635 42.3387 15.4199 42.1409 15.5768 41.8661C15.8747 41.3475 16.2585 40.6738 16.6766 39.9525C19.6266 34.8854 22.5938 35.5054 27.9438 38.1641L35.3273 41.8184C35.6069 41.9569 35.9286 41.9717 36.2189 41.8594C36.5091 41.7471 36.7434 41.5173 36.8682 41.2223L40.4139 32.8764C40.6644 32.2804 40.4095 31.5854 39.841 31.3146C38.283 30.5515 35.1841 29.0314 32.3945 27.6305C22.3589 22.5574 13.8298 22.8853 7.30547 33.9316Z" fill="url(#paint0_linear_803_2519)"/>
<path fill-rule="evenodd" clip-rule="evenodd" d="M40.6963 14.9925C41.0686 14.3606 41.4868 13.6273 41.8419 13.0431C42.1598 12.4841 41.9892 11.7631 41.4582 11.4217L34.0116 6.65261C33.7481 6.46789 33.4227 6.40536 33.1132 6.47996C32.8037 6.55456 32.5378 6.75959 32.3791 7.04606C32.0813 7.56469 31.6975 8.23832 31.2793 8.95963C28.3294 14.0267 25.3622 13.4068 20.0122 10.748L12.6516 7.11163C12.3719 6.97311 12.0503 6.95832 11.76 7.07063C11.4697 7.18294 11.2355 7.41277 11.1107 7.70776L7.56502 16.0536C7.31452 16.6497 7.56941 17.3447 8.13783 17.6155C9.69587 18.3785 12.7948 19.8986 15.5844 21.2995C25.6429 26.3667 34.172 26.0269 40.6963 14.9925Z" fill="url(#paint1_linear_803_2519)"/>
<defs>
<linearGradient id="paint0_linear_803_2519" x1="40.2134" y1="44.7335" x2="31.2998" y2="25.0846" gradientUnits="userSpaceOnUse">
<stop offset="0.18" stop-color="#0052CC"/>
<stop offset="1" stop-color="#2684FF"/>
</linearGradient>
<linearGradient id="paint1_linear_803_2519" x1="7.78842" y1="4.18463" x2="16.7159" y2="23.8426" gradientUnits="userSpaceOnUse">
<stop offset="0.18" stop-color="#0052CC"/>
<stop offset="1" stop-color="#2684FF"/>
</linearGradient>
</defs>
</svg>
