<svg width="48" height="49" viewBox="0 0 48 49" fill="none" xmlns="http://www.w3.org/2000/svg">
<path d="M24 3.44922C12.3975 3.44922 3 12.8467 3 24.4492C3 33.7417 9.01125 41.5905 17.3587 44.373C18.4087 44.5567 18.8025 43.9267 18.8025 43.3755C18.8025 42.8767 18.7763 41.223 18.7763 39.4642C13.5 40.4355 12.135 38.178 11.715 36.9967C11.4787 36.393 10.455 34.5292 9.5625 34.0305C8.8275 33.6367 7.7775 32.6655 9.53625 32.6392C11.19 32.613 12.3713 34.1617 12.765 34.7917C14.655 37.968 17.6738 37.0755 18.8813 36.5242C19.065 35.1592 19.6162 34.2405 20.22 33.7155C15.5475 33.1905 10.665 31.3792 10.665 23.3467C10.665 21.063 11.4788 19.173 12.8175 17.703C12.6075 17.178 11.8725 15.0255 13.0275 12.138C13.0275 12.138 14.7863 11.5867 18.8025 14.2905C20.4825 13.818 22.2675 13.5817 24.0525 13.5817C25.8375 13.5817 27.6225 13.818 29.3025 14.2905C33.3188 11.5605 35.0775 12.138 35.0775 12.138C36.2325 15.0255 35.4975 17.178 35.2875 17.703C36.6263 19.173 37.44 21.0367 37.44 23.3467C37.44 31.4055 32.5313 33.1905 27.8588 33.7155C28.62 34.3717 29.2763 35.6317 29.2763 37.6005C29.2763 40.4092 29.25 42.6667 29.25 43.3755C29.25 43.9267 29.6438 44.583 30.6938 44.373C34.8626 42.9656 38.4852 40.2863 41.0516 36.7122C43.6179 33.1381 44.9989 28.8493 45 24.4492C45 12.8467 35.6025 3.44922 24 3.44922Z" fill="black"/>
</svg>
