<svg width="48" height="49" viewBox="0 0 48 49" fill="none" xmlns="http://www.w3.org/2000/svg">
<circle cx="24" cy="24.4492" r="21" fill="#3290E8"/>
<path fill-rule="evenodd" clip-rule="evenodd" d="M33 12.4492H15C13.3646 12.4467 12.0029 13.8168 12 15.4492V33.4492C12 35.1059 13.3435 36.4492 15 36.4492H33C34.6354 36.4518 35.9971 35.0816 36 33.4492V15.4492C36 13.7926 34.6571 12.4492 33 12.4492ZM27.1993 16.8492C27.1993 16.4079 27.5581 16.0492 28 16.0492C28.4419 16.0492 28.8 16.4079 28.8 16.8492V27.5379C28.8 27.9792 28.4412 28.3379 28 28.3379C27.5765 28.3382 27.2011 27.9628 27.2 27.5379L27.1993 16.8492ZM23.1993 16.4446C23.1993 16.0026 23.5581 15.6446 24 15.6446C24.4419 15.6446 24.8007 16.0026 24.8007 16.4446V28.0446C24.8007 28.4866 24.4419 28.8446 24 28.8446C23.5765 28.8449 23.2011 28.4695 23.2 28.0446L23.1993 16.4446ZM19.2 16.8492C19.2 16.4079 19.5588 16.0492 20 16.0492C20.4419 16.0492 20.8 16.4079 20.8 16.8492V27.5379C20.8 27.9792 20.4419 28.3379 20 28.3379C19.5765 28.3382 19.2011 27.9628 19.2 27.5379V16.8492ZM15.2 18.4492C15.2 18.0072 15.5581 17.6492 16 17.6492C16.4419 17.6492 16.8 18.0072 16.8 18.4492V25.6446C16.8 26.0866 16.4412 26.4446 16 26.4446C15.5639 26.4453 15.2007 26.0799 15.2 25.6446V18.4492ZM32.5209 30.6519C32.398 30.7586 29.4339 33.2446 24 33.2446C18.5661 33.2446 15.604 30.7579 15.4791 30.6512C15.1485 30.368 15.1094 29.8542 15.3927 29.5239C15.6688 29.2024 16.1958 29.1612 16.5183 29.4359C16.5648 29.4752 19.2113 31.6446 23.9993 31.6446C28.8472 31.6446 31.4532 29.4592 31.4784 29.4379C31.8004 29.1612 32.3294 29.2015 32.606 29.5239C32.8911 29.8535 32.8525 30.3688 32.5209 30.6519ZM32.8 25.6452C32.8 26.0866 32.4412 26.4452 32 26.4452C31.5639 26.4459 31.2007 26.0806 31.2 25.6452V18.4492C31.2 18.0072 31.5581 17.6492 31.9993 17.6492C32.4412 17.6492 32.8 18.0072 32.8 18.4492V25.6452Z" fill="white"/>
</svg>
