<svg width="140" height="33" viewBox="0 0 140 33" fill="none" xmlns="http://www.w3.org/2000/svg">
<g opacity="0.8" clip-path="url(#clip0_776_4523)">
<path d="M48.1799 11.6954C48.1799 11.0275 47.6646 10.4795 46.9434 10.4795C46.2222 10.4795 45.707 11.0275 45.707 11.6954V21.56C45.707 22.228 46.2222 22.776 46.9434 22.776C47.6818 22.776 48.1799 22.228 48.1799 21.56V11.6954Z" fill="#9CA3AF"/>
<path d="M60.3529 10.4795C59.6317 10.4795 59.1336 11.0275 59.1336 11.6954V15.9084L59.2023 19.6762L57.7084 16.1481L55.7507 12.1407C55.1497 10.8905 54.4629 10.4795 53.4841 10.4795C52.0417 10.4795 51.4062 11.3872 51.4062 12.6887V21.56C51.4062 22.228 51.9042 22.776 52.6255 22.776C53.3467 22.776 53.8447 22.228 53.8447 21.56L53.8275 17.3985L53.776 13.134L55.373 17.0387L57.3478 21.1147C57.966 22.4163 58.6186 22.7932 59.6144 22.7932C60.9024 22.7932 61.572 22.0053 61.572 20.5496V11.6954C61.572 11.0275 61.0741 10.4795 60.3529 10.4795Z" fill="#9CA3AF"/>
<path d="M70.6926 12.9972L73.4916 13.0657C74.1441 13.0828 74.6594 12.5862 74.6594 11.8669C74.6594 11.1476 74.1441 10.6509 73.4916 10.6509L65.3864 10.6338C64.7511 10.6338 64.2188 11.1304 64.2188 11.8497C64.2188 12.569 64.7511 13.0657 65.3864 13.0486L68.2026 12.9972V21.5601C68.2026 22.2281 68.7177 22.7762 69.4391 22.7762C70.1774 22.7762 70.6926 22.2281 70.6926 21.5601V12.9972Z" fill="#9CA3AF"/>
<path d="M78.9891 22.6216H85.0164C85.6518 22.6216 86.1671 22.142 86.1671 21.474C86.1671 20.7891 85.6518 20.3095 85.0164 20.3095L79.779 20.3267V17.4666H84.3124C84.9306 17.4666 85.4286 17.0042 85.4286 16.3706C85.4286 15.7197 84.9306 15.2573 84.3124 15.2573L79.779 15.2916V12.9282H85.0164C85.6518 12.9282 86.1671 12.4487 86.1671 11.7636C86.1671 11.0786 85.6518 10.6162 85.0164 10.6162L79.0063 10.6333C77.9072 10.6333 77.2891 11.2499 77.2891 12.3459V20.909C77.2891 22.005 77.9072 22.6216 78.9891 22.6216Z" fill="#9CA3AF"/>
<path d="M95.9859 17.7411C97.6172 17.313 98.5789 16.0457 98.5789 14.3673C98.5789 12.5005 97.3596 10.6338 94.4404 10.6338H90.6625C89.5636 10.6338 88.9453 11.2503 88.9453 12.3464V21.5601C88.9453 22.2281 89.4605 22.7762 90.2161 22.7762C90.9545 22.7762 91.4868 22.2281 91.4868 21.5601L91.4697 18.3404H93.5475L95.6596 22.1425C96.003 22.7248 96.7242 22.9645 97.394 22.622C98.0637 22.2624 98.2526 21.543 97.892 20.9608L95.9859 17.7411ZM91.4697 12.9115H94.4576C95.4707 12.9115 96.1061 13.5452 96.1061 14.4871C96.1061 15.4119 95.5051 16.097 94.492 16.097H91.4697V12.9115Z" fill="#9CA3AF"/>
<path d="M106.163 22.8449C108.67 22.8449 110.284 21.7147 110.834 19.8822C111.126 18.8375 110.508 18.084 109.58 18.084C109.014 18.084 108.636 18.3751 108.413 19.0088C108.069 19.9679 107.228 20.5673 106.026 20.5673C104.12 20.5673 103.295 19.2827 103.295 16.6111C103.295 13.9908 104.137 12.7406 106.026 12.7406C107.211 12.7406 107.898 13.2373 108.327 14.3847C108.567 15.0356 108.962 15.3266 109.546 15.3266C110.439 15.3266 111.091 14.6074 110.817 13.6141C110.267 11.5932 108.67 10.4629 106.094 10.4629C102.557 10.4629 100.754 12.6208 100.754 16.6111C100.754 20.6357 102.557 22.8449 106.163 22.8449Z" fill="#9CA3AF"/>
<path d="M118.372 22.81C122.012 22.81 123.815 20.5835 123.815 16.6102C123.815 12.6028 121.961 10.3936 118.372 10.3936C114.766 10.3936 112.962 12.6371 112.945 16.6102C112.945 20.6006 114.783 22.81 118.372 22.81ZM118.372 20.5151C116.345 20.5151 115.47 19.2306 115.47 16.6102C115.47 13.9558 116.363 12.6713 118.354 12.6713C120.364 12.6713 121.308 13.9558 121.291 16.6102C121.291 19.2476 120.398 20.5151 118.372 20.5151Z" fill="#9CA3AF"/>
<path d="M139.799 12.6208C139.799 11.2678 138.958 10.4629 137.652 10.4629C136.588 10.4629 135.781 11.0452 135.386 12.381L134.064 16.6796L133.188 19.7794L132.346 16.6796L130.938 12.381C130.543 11.1308 129.856 10.4629 128.654 10.4629C127.332 10.4629 126.508 11.2507 126.508 12.6208V21.5605C126.508 22.2285 126.989 22.7766 127.693 22.7766C128.397 22.7766 128.878 22.2285 128.878 21.5605L128.86 17.2448L128.74 12.6208L130.097 17.3476L131.539 21.5262C131.848 22.4511 132.432 22.7594 133.188 22.7594C133.892 22.7594 134.458 22.5025 134.75 21.5605L136.124 17.3476L137.584 12.5865L137.446 17.2448V21.5605C137.446 22.2285 137.944 22.7766 138.631 22.7766C139.335 22.7766 139.816 22.2285 139.816 21.5605L139.799 12.6208Z" fill="#9CA3AF"/>
<path d="M27.7958 18.229C27.7958 18.5145 27.6834 18.7882 27.4831 18.9899C27.2829 19.1917 27.0113 19.3052 26.7281 19.3052C26.4448 19.3052 26.1733 19.1917 25.973 18.9899C25.7728 18.7882 25.6603 18.5145 25.6603 18.229V8.61538C25.6603 8.32999 25.7728 8.05628 25.973 7.85448C26.1733 7.65267 26.4448 7.53929 26.7281 7.53929C27.0113 7.53929 27.2829 7.65267 27.4831 7.85448C27.6834 8.05628 27.7958 8.32999 27.7958 8.61538V18.229ZM27.4251 24.8902C27.284 25.0324 23.3132 28.3674 16.0333 28.3674C8.75347 28.3674 4.80911 25.0502 4.64146 24.9079C4.5358 24.8181 4.44877 24.7082 4.38536 24.5845C4.32194 24.4606 4.28338 24.3255 4.27191 24.1867C4.26044 24.0479 4.27625 23.9082 4.31847 23.7755C4.36068 23.6429 4.42847 23.5199 4.51791 23.4138C4.7022 23.1989 4.96332 23.0662 5.24433 23.0445C5.52534 23.0228 5.80344 23.1141 6.01801 23.2982C6.07978 23.3427 9.62704 26.2419 16.0245 26.2419C22.4219 26.2419 25.9956 23.3249 26.031 23.2982C26.248 23.1157 26.527 23.0257 26.8087 23.0473C27.0905 23.0689 27.3528 23.2003 27.5398 23.4138C27.7199 23.6255 27.8097 23.9003 27.7899 24.1784C27.7701 24.4564 27.6422 24.7155 27.434 24.899L27.4251 24.8902ZM4.26202 8.61538C4.27798 8.32909 4.40575 8.06079 4.61739 7.86916C4.82903 7.67751 5.10735 7.5781 5.3915 7.59265C5.65492 7.60773 5.90348 7.72058 6.08923 7.90943C6.27499 8.09828 6.38479 8.34978 6.39744 8.61538V18.2113C6.39744 18.4966 6.28495 18.7703 6.08472 18.9721C5.88448 19.174 5.61291 19.2874 5.32973 19.2874C5.04656 19.2874 4.77498 19.174 4.57474 18.9721C4.37452 18.7703 4.26202 18.4966 4.26202 18.2113V8.61538ZM9.61823 6.48099C9.63418 6.19469 9.76195 5.9264 9.97359 5.73477C10.1852 5.54312 10.4635 5.44372 10.7477 5.45826C11.0111 5.47334 11.2597 5.58619 11.4454 5.77504C11.6312 5.96389 11.741 6.21537 11.7536 6.48099V20.7102C11.7536 20.9957 11.6411 21.2694 11.4409 21.4712C11.2407 21.673 10.9691 21.7863 10.6859 21.7863C10.4028 21.7863 10.1312 21.673 9.93094 21.4712C9.73072 21.2694 9.61823 20.9957 9.61823 20.7102V6.48099ZM15.0009 5.94739C15.0009 5.662 15.1134 5.38829 15.3136 5.18649C15.5139 4.98468 15.7855 4.8713 16.0685 4.8713C16.3518 4.8713 16.6234 4.98468 16.8236 5.18649C17.0238 5.38829 17.1363 5.662 17.1363 5.94739V21.4218C17.1363 21.7071 17.0238 21.9808 16.8236 22.1827C16.6234 22.3845 16.3518 22.4978 16.0685 22.4978C15.7855 22.4978 15.5139 22.3845 15.3136 22.1827C15.1134 21.9808 15.0009 21.7071 15.0009 21.4218V5.94739ZM20.2954 6.48099C20.2954 6.1956 20.4078 5.92189 20.6081 5.72008C20.8083 5.51828 21.0799 5.4049 21.363 5.4049C21.6462 5.4049 21.9178 5.51828 22.118 5.72008C22.3183 5.92189 22.4308 6.1956 22.4308 6.48099V20.7102C22.4308 20.9957 22.3183 21.2694 22.118 21.4712C21.9178 21.673 21.6462 21.7863 21.363 21.7863C21.0799 21.7863 20.8083 21.673 20.6081 21.4712C20.4078 21.2694 20.2954 20.9957 20.2954 20.7102V6.48099ZM28.0869 0.611417H4.01494C3.49042 0.607903 2.97037 0.708695 2.48457 0.908021C1.99876 1.10735 1.55672 1.4013 1.18378 1.77303C0.810843 2.14477 0.514318 2.58699 0.311188 3.07439C0.108057 3.56178 0.00230933 4.08476 0 4.6134V28.6254C0.00230933 29.1539 0.108057 29.677 0.311188 30.1644C0.514318 30.6517 0.810843 31.094 1.18378 31.4657C1.55672 31.8374 1.99876 32.1314 2.48457 32.3307C2.97037 32.5301 3.49042 32.6307 4.01494 32.6272H28.0869C28.6107 32.6307 29.1301 32.5303 29.6153 32.3315C30.1006 32.1328 30.5422 31.8396 30.915 31.4688C31.2878 31.098 31.5845 30.6568 31.7881 30.1704C31.9919 29.6841 32.0985 29.1621 32.1018 28.6342V4.6134C32.0996 4.08552 31.9941 3.56326 31.7915 3.07645C31.589 2.58964 31.2933 2.14782 30.9212 1.77619C30.5492 1.40457 30.1083 1.11044 29.6234 0.910587C29.1387 0.710734 28.6195 0.609076 28.0958 0.611417" fill="#9CA3AF"/>
</g>
<defs>
<clipPath id="clip0_776_4523">
<rect width="140" height="32.016" fill="white" transform="translate(0 0.611328)"/>
</clipPath>
</defs>
</svg>
