<svg xmlns="http://www.w3.org/2000/svg" width="132" height="35"><g transform="translate(0 0.611)"><path d="M 0 33.838 L 0 0 L 132 0 L 132 33.838 Z" fill="transparent"></path><path d="M 47.86 8.086 L 41.129 25.819 L 44.57 25.819 L 46 21.673 L 53.007 21.673 L 54.414 25.819 L 57.88 25.819 L 51.401 8.086 Z M 46.779 19.162 C 48.337 14.817 48.965 13.058 49.541 11.275 C 50.371 13.862 51.225 16.274 52.222 19.162 Z" fill="rgb(156,163,175)"></path><path d="M 65.977 13.066 C 65.22 13.056 64.471 13.226 63.791 13.561 C 63.111 13.895 62.52 14.386 62.066 14.992 L 62.066 8.086 L 59.121 8.086 L 59.121 25.819 L 61.934 25.819 L 61.934 24.186 C 62.79 25.417 63.944 26.07 65.652 26.07 C 68.741 26.07 70.802 23.658 70.802 19.564 C 70.802 15.47 68.917 13.066 65.977 13.066 Z M 64.924 23.619 C 63.064 23.619 61.984 22.088 61.984 19.432 C 61.984 17.046 63.24 15.539 65.024 15.539 C 66.699 15.539 67.736 17.071 67.736 19.582 C 67.736 22.227 66.657 23.608 64.924 23.608 Z" fill="rgb(156,163,175)"></path><path d="M 76.978 15.198 C 78.185 15.198 79.14 15.851 79.768 16.959 L 81.958 15.475 C 80.85 13.714 79.015 12.962 77.028 12.962 C 73.934 12.962 72.17 14.773 72.17 16.734 C 72.17 18.646 73.401 19.778 75.338 20.381 L 76.678 20.808 C 78.564 21.411 78.991 21.763 78.991 22.594 C 78.991 23.348 78.288 23.902 77.004 23.902 C 75.621 23.902 74.465 23.147 73.812 21.864 L 71.523 23.371 C 72.579 24.956 74.314 26.189 76.884 26.189 C 80.003 26.189 81.938 24.504 81.938 22.189 C 81.938 20.178 80.681 19.146 78.469 18.441 L 77.128 18.039 C 75.519 17.537 75.118 17.185 75.118 16.431 C 75.118 15.677 75.715 15.198 76.978 15.198 Z" fill="rgb(156,163,175)"></path><path d="M 87.913 21.944 L 87.913 15.675 L 90.335 15.675 L 90.335 13.318 L 87.913 13.318 L 87.913 9.229 L 84.986 9.229 L 84.929 13.318 L 82.973 13.318 L 82.973 15.675 L 84.929 15.675 L 84.929 22.527 C 84.929 23.686 85.107 24.569 85.634 25.173 C 86.162 25.778 86.975 26.08 88.202 26.08 C 88.944 26.077 89.682 25.982 90.4 25.796 L 90.4 23.451 C 90.013 23.595 89.604 23.671 89.191 23.677 C 88.279 23.686 87.913 23.234 87.913 21.944 Z" fill="rgb(156,163,175)"></path><path d="M 94.81 15.244 L 94.81 13.319 L 91.996 13.319 L 91.996 25.882 L 94.944 25.882 L 94.944 20.019 C 94.944 18.679 95.165 17.795 95.599 17.142 C 96.145 16.358 96.926 15.883 98.279 15.899 C 98.645 15.905 99.008 15.961 99.358 16.066 L 99.358 13.319 C 99.01 13.207 98.646 13.15 98.279 13.151 C 96.547 13.156 95.567 13.888 94.81 15.244 Z" fill="rgb(156,163,175)"></path><path d="M 110.649 22.447 L 110.649 17.924 C 110.649 15.96 110.386 14.93 109.605 14.2 C 108.768 13.394 107.567 12.992 105.856 12.992 C 102.66 12.992 100.643 14.5 100.442 17.22 L 103.265 17.471 C 103.416 16.088 104.094 15.307 105.63 15.307 C 106.411 15.307 107.014 15.475 107.366 15.835 C 107.717 16.195 107.845 16.641 107.845 17.342 L 107.845 18.013 C 105.856 18.14 103.441 18.492 102.208 19.044 C 100.724 19.724 99.918 20.781 99.918 22.395 C 99.918 24.634 101.528 26.07 103.818 26.07 C 105.603 26.07 106.962 25.442 107.918 24.284 C 108.191 25.536 109.073 25.998 110.647 25.998 C 111.102 26.007 111.555 25.939 111.987 25.797 L 111.987 23.887 C 110.855 24.092 110.657 23.427 110.649 22.447 Z M 107.845 20.56 C 107.818 21.264 107.694 21.969 107.29 22.549 C 106.737 23.378 105.806 23.857 104.674 23.857 C 103.365 23.857 102.761 23.177 102.761 22.272 C 102.761 21.567 103.062 21.088 103.843 20.736 C 104.724 20.309 106.411 20.056 107.845 19.981 Z" fill="rgb(156,163,175)"></path><path d="M 118.722 23.715 C 116.787 23.715 115.63 22.258 115.63 19.494 C 115.63 16.705 116.938 15.423 118.645 15.423 C 119.826 15.423 120.73 15.976 121.084 17.635 L 123.724 16.73 C 123.144 14.494 121.436 12.961 118.719 12.961 C 114.973 12.961 112.609 15.448 112.609 19.544 C 112.609 23.665 114.923 26.178 118.568 26.178 C 121.416 26.178 123.069 24.67 123.799 22.585 L 121.159 21.68 C 120.859 23.012 120.055 23.715 118.722 23.715 Z" fill="rgb(156,163,175)"></path><path d="M 129.398 21.944 L 129.398 15.675 L 131.818 15.675 L 131.818 13.318 L 129.398 13.318 L 129.398 9.229 L 126.471 9.229 L 126.419 13.318 L 124.461 13.318 L 124.461 15.675 L 126.424 15.675 L 126.424 22.527 C 126.424 23.686 126.602 24.569 127.129 25.173 C 127.657 25.778 128.47 26.08 129.697 26.08 C 130.435 26.076 131.169 25.981 131.883 25.796 L 131.883 23.451 C 131.496 23.594 131.088 23.671 130.676 23.677 C 129.768 23.686 129.398 23.234 129.398 21.944 Z" fill="rgb(156,163,175)"></path><path d="M 16.83 0.167 C 3.429 0.132 0.071 3.474 0.035 16.875 C 0 30.276 3.34 33.635 16.741 33.67 C 30.142 33.705 33.503 30.363 33.538 16.962 C 33.573 3.561 30.231 0.202 16.83 0.167 Z M 14.038 26.08 C 12.77 26.08 11.53 25.704 10.475 24.999 C 9.421 24.295 8.599 23.293 8.114 22.121 C 7.628 20.95 7.501 19.66 7.749 18.416 C 7.996 17.173 8.607 16.03 9.504 15.133 C 10.4 14.236 11.543 13.626 12.787 13.378 C 14.031 13.131 15.32 13.258 16.492 13.743 C 17.664 14.228 18.665 15.05 19.37 16.105 C 20.074 17.159 20.45 18.399 20.45 19.667 C 20.448 21.367 19.772 22.997 18.57 24.199 C 17.368 25.401 15.738 26.078 14.038 26.08 Z M 25.685 25.817 L 22.544 25.817 L 22.544 11.161 L 7.887 11.161 L 7.887 8.02 L 25.685 8.02 Z" fill="rgb(156,163,175)"></path><path d="M 14.037 16.396 C 13.39 16.396 12.758 16.588 12.22 16.948 C 11.682 17.307 11.262 17.818 11.015 18.416 C 10.767 19.014 10.702 19.672 10.829 20.306 C 10.955 20.941 11.266 21.524 11.724 21.981 C 12.181 22.439 12.764 22.75 13.399 22.877 C 14.034 23.003 14.691 22.938 15.289 22.69 C 15.887 22.443 16.398 22.024 16.757 21.486 C 17.117 20.947 17.309 20.315 17.309 19.668 C 17.308 18.801 16.963 17.969 16.349 17.356 C 15.736 16.742 14.905 16.397 14.037 16.396 Z" fill="rgb(156,163,175)"></path></g></svg>