<svg width="36" height="36" viewBox="0 0 36 36" fill="none" xmlns="http://www.w3.org/2000/svg">
<path d="M36.001 14.028V14.16C36.019 12.2972 35.6655 10.4494 34.961 8.72482C34.2565 7.00024 33.2152 5.43342 31.898 4.116C30.5958 2.81106 29.0489 1.77581 27.346 1.06952C25.6431 0.363239 23.8176 -0.000205696 21.974 8.73377e-08H14.018C10.3012 0.00309332 6.73712 1.47879 4.10601 4.104C1.40601 6.804 -0.0339869 10.44 0.00101313 14.148V14.016V21.972V21.84C-0.0168867 23.7029 0.336839 25.5507 1.0415 27.2753C1.74617 28.9999 2.78763 30.5667 4.10497 31.884C5.42232 33.2014 6.9891 34.2428 8.7137 34.9475C10.4383 35.6522 12.2861 36.0059 14.149 35.988H14.017H21.973H21.841C23.704 36.006 25.5519 35.6524 27.2766 34.9478C29.0013 34.2432 30.5683 33.2018 31.8857 31.8844C33.2032 30.567 34.2447 29.0002 34.9494 27.2755C35.6542 25.5509 36.0079 23.703 35.99 21.84V21.972V14.028H36.001ZM35.581 17.412C35.546 17.556 35.521 17.7 35.51 17.856C35.534 17.7 35.545 17.556 35.581 17.412ZM36.001 14.352C36.001 14.436 36.001 14.508 35.99 14.592C35.99 14.508 35.989 14.436 36.001 14.352ZM35.978 14.796C35.978 14.88 35.966 14.952 35.966 15.036C35.966 14.952 35.978 14.868 35.978 14.796ZM35.954 15.228C35.942 15.3 35.942 15.384 35.93 15.456C35.93 15.384 35.942 15.312 35.954 15.228ZM35.774 16.548C35.762 16.62 35.75 16.704 35.726 16.776C35.738 16.704 35.762 16.62 35.774 16.548ZM9.23001 8.328C9.92398 6.77015 10.9004 5.35427 12.11 4.152C13.5464 2.71012 15.2839 1.60371 17.198 0.912C17.7209 0.719989 18.2951 0.719989 18.818 0.912C20.714 1.608 22.466 2.712 23.906 4.152C25.1149 5.35481 26.0913 6.77055 26.786 8.328C26.882 8.532 26.678 8.748 26.462 8.676C23.942 7.836 21.194 7.716 18.602 8.364C18.218 8.46 17.822 8.46 17.438 8.364C14.8407 7.72794 12.1167 7.83606 9.57801 8.676C9.33801 8.76 9.13401 8.544 9.23001 8.328ZM0.481013 17.856C0.468083 17.7064 0.444017 17.558 0.409013 17.412C0.371097 17.2694 0.33907 17.1253 0.313013 16.98C0.349013 17.124 0.373013 17.268 0.409013 17.412C0.457013 17.556 0.469013 17.7 0.481013 17.856ZM0.0130131 14.592C0.0130131 14.508 0.00101313 14.436 0.00101313 14.352C0.0130131 14.436 0.0130131 14.508 0.0130131 14.592ZM0.193013 16.32L0.157013 16.104C0.169013 16.188 0.181013 16.26 0.193013 16.32ZM0.0730131 15.456C0.0610131 15.384 0.0610131 15.3 0.0500131 15.228C0.0620131 15.312 0.0740131 15.384 0.0740131 15.456H0.0730131ZM0.0370131 15.024C0.0370131 14.94 0.0250131 14.868 0.0250131 14.784C0.0250131 14.868 0.0370131 14.952 0.0370131 15.024ZM0.421013 18.588C0.457013 18.444 0.481013 18.3 0.493013 18.144C0.469013 18.3 0.457013 18.444 0.421013 18.588ZM0.00101313 21.648C0.00101313 21.564 0.00101313 21.492 0.0130131 21.408C0.0130131 21.492 0.0130131 21.564 0.00101313 21.648ZM0.0250131 21.204C0.0250131 21.12 0.0370131 21.048 0.0370131 20.964C0.0370131 21.048 0.0250131 21.132 0.0250131 21.204ZM0.0490131 20.772C0.0610131 20.7 0.0610131 20.616 0.0730131 20.544C0.0730131 20.616 0.0610131 20.688 0.0490131 20.772ZM0.157013 19.884L0.193013 19.668C0.181013 19.752 0.169013 19.812 0.157013 19.884ZM0.229013 19.452C0.241013 19.38 0.253013 19.296 0.277013 19.224C0.265013 19.296 0.241013 19.38 0.229013 19.452ZM8.36501 17.412C8.46101 17.796 8.46101 18.192 8.36501 18.576C7.72797 21.1732 7.83611 23.8974 8.67701 26.436C8.74901 26.652 8.53301 26.856 8.32901 26.76C6.77122 26.0659 5.35536 25.0895 4.15301 23.88C2.71134 22.4434 1.60496 20.706 0.913013 18.792C0.721002 18.2691 0.721002 17.6949 0.913013 17.172C1.61209 15.2615 2.71754 13.5255 4.15301 12.084C5.35536 10.8745 6.77122 9.89807 8.32901 9.204C8.53301 9.108 8.74901 9.312 8.67701 9.528C7.83705 12.075 7.72895 14.8066 8.36501 17.412ZM17.413 35.58C17.557 35.544 17.701 35.52 17.857 35.508C17.701 35.532 17.557 35.544 17.413 35.58ZM14.353 36C14.437 36 14.509 36 14.593 35.988C14.509 35.988 14.437 35.988 14.353 36ZM14.797 35.976C14.881 35.976 14.953 35.964 15.037 35.964C14.953 35.964 14.869 35.976 14.797 35.976ZM15.229 35.952C15.301 35.94 15.385 35.94 15.457 35.928C15.385 35.928 15.313 35.94 15.229 35.952ZM16.549 35.772C16.621 35.76 16.705 35.748 16.777 35.724C16.705 35.736 16.621 35.76 16.549 35.772ZM18.145 35.52C18.289 35.532 18.445 35.556 18.589 35.592C18.733 35.628 18.877 35.664 19.021 35.688C18.877 35.652 18.733 35.628 18.589 35.592C18.4446 35.5497 18.2954 35.5255 18.145 35.52ZM21.409 35.988C21.493 35.988 21.565 36 21.649 36C21.565 35.988 21.493 35.988 21.409 35.988ZM19.681 35.808L19.897 35.844C19.8247 35.8341 19.7526 35.8221 19.681 35.808ZM20.545 35.928C20.617 35.94 20.701 35.94 20.773 35.952C20.689 35.94 20.617 35.928 20.545 35.928ZM20.977 35.964C21.061 35.964 21.133 35.976 21.217 35.976C21.133 35.976 21.049 35.964 20.977 35.964ZM26.773 27.672C26.0783 29.2294 25.1019 30.6452 23.893 31.848C22.4564 33.2897 20.719 34.3961 18.805 35.088C18.2821 35.28 17.7079 35.28 17.185 35.088C15.4282 34.448 13.8177 33.4618 12.4491 32.1879C11.0804 30.9141 9.98132 29.3784 9.21701 27.672C9.12101 27.468 9.32501 27.252 9.54101 27.324C12.061 28.176 14.809 28.284 17.401 27.636C17.785 27.54 18.181 27.54 18.565 27.636C21.157 28.284 23.905 28.164 26.425 27.324C26.665 27.24 26.869 27.456 26.773 27.672ZM27.145 18.804C26.4452 20.7141 25.3398 22.4499 23.905 23.892C22.4684 25.3337 20.731 26.4401 18.817 27.132C18.2941 27.324 17.7199 27.324 17.197 27.132C15.2865 26.433 13.5505 25.3276 12.109 23.892C10.6673 22.4554 9.56096 20.718 8.86901 18.804C8.677 18.2811 8.677 17.7069 8.86901 17.184C9.56809 15.2735 10.6735 13.5375 12.109 12.096C13.5454 10.6541 15.2829 9.54771 17.197 8.856C17.7199 8.66399 18.2941 8.66399 18.817 8.856C20.713 9.552 22.465 10.656 23.905 12.096C25.3464 13.5328 26.4527 15.2702 27.145 17.184C27.325 17.712 27.325 18.288 27.145 18.804ZM35.089 18.804C34.3892 20.7141 33.2838 22.4499 31.849 23.892C30.6463 25.101 29.2305 26.0774 27.673 26.772C27.469 26.868 27.253 26.664 27.325 26.448C28.165 23.928 28.285 21.18 27.637 18.588C27.541 18.2059 27.541 17.8061 27.637 17.424C28.273 14.832 28.165 12.084 27.325 9.564C27.253 9.348 27.469 9.144 27.673 9.24C29.2305 9.93458 30.6463 10.911 31.849 12.12C33.2904 13.5568 34.3967 15.2942 35.089 17.208C35.281 17.712 35.281 18.288 35.089 18.804ZM35.521 18.144C35.533 18.288 35.557 18.444 35.593 18.588C35.629 18.732 35.665 18.876 35.689 19.02C35.653 18.876 35.629 18.732 35.593 18.588C35.5501 18.4437 35.5259 18.2945 35.521 18.144ZM35.989 21.408C35.989 21.492 36.001 21.564 36.001 21.648C35.989 21.564 35.989 21.492 35.989 21.408ZM35.809 19.68L35.845 19.896C35.833 19.812 35.821 19.752 35.809 19.68ZM35.929 20.544C35.941 20.616 35.941 20.7 35.953 20.772C35.941 20.688 35.929 20.616 35.929 20.544ZM35.965 20.976C35.965 21.06 35.977 21.132 35.977 21.216C35.977 21.132 35.965 21.048 35.965 20.976Z" fill="url(#paint0_linear_66_3)"/>
<defs>
<linearGradient id="paint0_linear_66_3" x1="0.000366326" y1="13.104" x2="36.0018" y2="22.8968" gradientUnits="userSpaceOnUse">
<stop stop-color="#6D8DFF"/>
<stop offset="1" stop-color="#825FE8"/>
</linearGradient>
</defs>
</svg>
