<svg xmlns="http://www.w3.org/2000/svg" width="48" height="49"><path d="M 45 22.251 L 32.206 22.251 L 43.286 15.853 L 41.088 12.045 L 30.007 18.443 L 36.403 7.362 L 32.596 5.164 L 26.199 16.242 L 26.199 3.449 L 21.801 3.449 L 21.801 16.244 L 15.404 5.164 L 11.596 7.362 L 17.992 18.44 L 6.913 12.045 L 4.714 15.853 L 15.794 22.251 L 3 22.251 L 3 26.649 L 15.793 26.649 L 4.714 33.047 L 6.912 36.855 L 17.993 30.457 L 11.596 41.538 L 15.403 43.736 L 21.801 32.656 L 21.801 45.449 L 26.199 45.449 L 26.199 32.382 L 32.714 43.666 L 36.284 41.605 L 29.767 30.318 L 41.086 36.853 L 43.284 33.045 L 32.206 26.647 L 44.999 26.647 L 44.999 22.251 L 45 22.251 Z M 24 30.427 C 23.215 30.427 22.438 30.273 21.713 29.972 C 20.987 29.672 20.328 29.232 19.773 28.676 C 19.218 28.121 18.778 27.462 18.477 26.737 C 18.177 26.011 18.022 25.234 18.022 24.449 C 18.022 23.663 18.176 22.886 18.477 22.16 C 18.777 21.435 19.217 20.776 19.772 20.22 C 20.327 19.665 20.986 19.224 21.711 18.924 C 22.436 18.623 23.214 18.469 23.999 18.468 C 25.584 18.468 27.104 19.098 28.226 20.219 C 29.347 21.341 29.977 22.861 29.977 24.447 C 29.977 26.033 29.347 27.554 28.227 28.675 C 27.106 29.797 25.585 30.427 24 30.427 Z" fill="rgb(98,93,245)"></path></svg>