<svg width="32" height="34" viewBox="0 0 32 34" fill="none" xmlns="http://www.w3.org/2000/svg">
<path d="M7.80326 22.9245C7.34407 22.2293 8.49899 21.1771 8.02925 20.2937C7.75846 19.7842 7.31583 19.4667 6.78428 19.4001C6.27412 19.3361 5.74858 19.5228 5.4136 19.8878C4.88472 20.4633 4.80248 21.2467 4.90478 21.5239C4.94222 21.6256 5.00106 21.6533 5.04318 21.6592C5.33124 21.6972 5.49333 20.9578 5.59279 20.8039C5.86776 20.3795 6.49215 20.251 6.92335 20.53C7.74097 21.0588 7.03201 21.9135 7.09318 22.6354C7.15269 23.3383 7.59064 23.6208 7.98379 23.6505C8.36624 23.665 8.63369 23.4525 8.70122 23.2974C8.86313 22.9271 8.18108 23.4965 7.80326 22.9245Z" fill="black"/>
<path d="M24.8866 16.543C24.6721 16.5133 24.4377 16.514 24.1939 16.543C24.0087 16.3093 23.8428 15.9311 23.7492 15.4896C23.5827 14.7042 23.6001 14.1353 24.0648 14.0614C24.5295 13.9875 24.7542 14.4627 24.9207 15.2481C25.0323 15.7761 25.0109 16.2612 24.8866 16.543Z" fill="black"/>
<path d="M19.7969 17.0103C19.8153 17.1881 19.8218 17.3681 19.8166 17.5338C20.2662 17.5602 20.5847 17.7737 20.6695 17.9092C20.713 17.9792 20.6956 18.0247 20.6815 18.0458C20.635 18.1182 20.5353 18.1071 20.3263 18.0836C20.1438 18.0631 19.9472 18.0451 19.743 18.0545C19.6318 18.3954 19.3022 18.4273 19.0706 18.1752C18.9089 18.2245 18.5911 18.4274 18.4965 18.2069C18.4956 18.0975 18.61 17.9384 18.8173 17.798C18.6758 17.5282 18.581 17.2393 18.525 16.9402C18.2313 16.9932 17.967 17.0754 17.7599 17.1399C17.6626 17.1702 17.2779 17.344 17.2328 17.1481C17.2027 17.0128 17.4133 16.7898 17.636 16.6287C17.8847 16.4521 18.1608 16.3266 18.4469 16.2541C18.4407 15.8281 18.5494 15.5309 18.8589 15.4817C19.2427 15.4206 19.4805 15.7161 19.6451 16.2632C20.1089 16.3921 20.572 16.7116 20.7765 17.0419C20.8561 17.1699 20.8714 17.2689 20.8199 17.3211C20.6914 17.4543 19.9793 17.0681 19.7969 17.0103Z" fill="black"/>
<path d="M22.8466 18.9249C23.1408 19.0675 23.4644 19.0114 23.57 18.7995C23.6757 18.5876 23.5225 18.3005 23.2283 18.158C22.9342 18.0154 22.6105 18.0715 22.5049 18.2834C22.3993 18.4952 22.5524 18.7823 22.8466 18.9249Z" fill="black"/>
<path d="M24.2948 17.8729C24.3001 17.5488 24.4987 17.2901 24.7374 17.294C24.9761 17.2987 25.1653 17.564 25.1599 17.8874C25.1546 18.2108 24.956 18.4695 24.7173 18.4655C24.4786 18.4616 24.2894 18.1963 24.2948 17.8729Z" fill="black"/>
<path fill-rule="evenodd" clip-rule="evenodd" d="M30.7677 21.8414C30.7724 21.858 30.7658 21.8347 30.7677 21.8414C31.2471 21.8414 32 22.3853 32 23.6993C32 25.0068 31.4504 26.4878 31.3207 26.8165C29.3409 31.4998 24.6157 34.1068 18.9873 33.9418C13.7399 33.7881 9.26483 31.055 7.30643 26.5994C6.1223 26.6007 4.90139 26.0865 3.97335 25.2747C2.99515 24.4194 2.39205 23.3126 2.27438 22.1582C2.18277 21.2593 2.29443 20.4231 2.57994 19.6938L1.48005 18.7738C-3.55334 14.5788 12.1894 -2.69331 17.2241 1.64155C17.2495 1.66333 18.9371 3.29749 18.9411 3.30145C21.3688 2.284 27.8733 0.346816 27.8806 4.8564C27.8833 6.35394 26.9165 8.10029 25.3673 9.68494C27.1576 11.3239 26.6855 13.6519 26.9706 15.7879L27.5924 15.9582C28.7779 16.2862 29.621 16.7238 30.0336 17.1515C30.4461 17.5785 30.6507 17.9923 30.7249 18.4774C30.7945 18.8688 30.7851 19.5598 30.2623 20.3327C30.4505 20.8312 30.6224 21.3283 30.7677 21.8414ZM7.2175 25.3843C7.39335 25.3883 7.56786 25.377 7.73903 25.348C9.57841 25.0385 10.0598 23.0664 9.75693 21.13C9.4146 18.9434 7.91621 18.1725 6.89924 18.1177C6.61641 18.1032 6.35364 18.1283 6.13701 18.1712C4.3217 18.5322 3.2967 20.0568 3.49862 22.0368C3.68116 23.8287 5.5172 25.3394 7.2175 25.3843ZM3.10614 18.7084C3.71526 17.8353 4.71084 17.2036 5.84081 16.9865C7.27902 13.1757 9.68071 9.66448 12.8593 7.24823C15.2182 5.30586 17.7624 3.91261 17.7624 3.91261C17.7624 3.91261 16.3923 2.34445 15.9785 2.22895C13.433 1.55047 7.9356 5.29266 4.42533 10.2374C3.00518 12.2378 0.971899 15.7807 1.94408 17.6029C2.06376 17.8287 2.74241 18.4088 3.10614 18.7084ZM23.7432 24.5091C23.7472 24.5501 23.7218 24.5923 23.685 24.6075C23.685 24.6075 21.6397 25.5467 18.3909 24.5547C18.5077 25.5285 19.6887 25.8976 20.5137 26.0311C24.5395 26.7149 28.3032 24.4425 29.1503 23.8703C29.2958 23.772 29.1486 24.0246 29.1222 24.0617C28.0852 25.3823 25.2971 26.9115 21.6698 26.9109C20.0878 26.9102 18.5065 26.3604 17.9262 25.515C17.0255 24.2036 17.8814 22.2889 19.3824 22.4882C21.9197 22.771 24.5209 22.5586 26.8697 21.4824C28.9177 20.5439 29.6912 19.5116 29.5749 18.6754C29.3945 17.3795 27.4731 17.1768 26.5019 16.8618C26.0793 16.7238 25.8707 16.6136 25.8233 15.8289C25.8025 15.4863 25.7424 14.2911 25.7203 13.7967C25.6815 12.9315 25.5759 11.7481 24.8324 11.2597C24.6385 11.1323 24.4232 11.0709 24.1965 11.0591C24.0158 11.0504 23.9086 11.0753 23.851 11.0886C23.8381 11.0916 23.8276 11.094 23.8194 11.0954C23.418 11.1628 23.1719 11.3659 22.8818 11.6054C22.8651 11.6192 22.8482 11.6331 22.8312 11.6471C21.9038 12.4101 21.1208 12.5348 20.2496 12.4979C19.9783 12.4865 19.6986 12.4594 19.4036 12.4308C19.1323 12.4045 18.848 12.377 18.5453 12.3593L18.1756 12.3381C16.7166 12.2642 15.152 13.5077 14.892 15.2738C14.6014 17.2452 15.7033 18.4527 16.4199 19.238C16.5969 19.432 16.7505 19.6003 16.8537 19.7479C16.9199 19.837 16.9968 19.9624 16.9968 20.0819C16.9968 20.2244 16.9032 20.3373 16.8116 20.4337C15.3232 21.9444 14.8472 24.3448 15.4081 26.3453C15.4783 26.5947 15.5673 26.8337 15.6722 27.062C16.9881 30.0973 21.0707 31.5111 25.0584 30.2254C27.8531 29.3242 30.3224 27.1468 30.8252 24.1429C30.9449 23.3601 30.7691 23.0578 30.5297 22.912C30.2763 22.7582 29.9727 22.8116 29.9727 22.8116C29.9727 22.8116 29.8343 21.8764 29.4425 21.0263C28.2798 21.9319 26.7834 22.5681 25.6441 22.8908C23.8186 23.4078 21.8469 23.609 19.9605 23.3653C19.1955 23.2664 18.6814 23.2 18.4611 23.9066C20.9771 24.816 23.6402 24.4266 23.6402 24.4266C23.6917 24.4214 23.7378 24.4583 23.7432 24.5091ZM16.4839 6.86016C15.1079 7.55513 13.5714 8.79263 12.3238 10.2162C12.2796 10.2671 12.3452 10.337 12.3993 10.2981C13.4771 9.52391 14.9548 8.80451 16.8905 8.33855C19.0588 7.81649 21.1463 8.03561 22.4213 8.32403C22.4855 8.33855 22.5256 8.22965 22.4688 8.19797C21.6263 7.73135 20.3332 7.41455 19.4159 7.40795C19.3711 7.40729 19.3456 7.35581 19.3724 7.32017C19.5309 7.10963 19.7482 6.90174 19.9467 6.75126C19.9909 6.71694 19.9641 6.64632 19.908 6.64962C18.7668 6.71879 16.1603 7.90725 16.1697 7.86401C16.2366 7.54721 16.4472 7.12877 16.5562 6.93342C16.5822 6.88722 16.5314 6.8364 16.4839 6.86016Z" fill="black"/>
</svg>
