<svg width="48" height="49" viewBox="0 0 48 49" fill="none" xmlns="http://www.w3.org/2000/svg">
<path fill-rule="evenodd" clip-rule="evenodd" d="M8.574 44.2759L3.41495 37.8489C2.17369 36.3026 1.5 34.4011 1.5 32.444V9.1717C1.5 6.24018 3.84538 3.80767 6.87107 3.6011L30.7982 1.96749C32.5365 1.84881 34.2642 2.31085 35.6921 3.27627L44.0989 8.96009C45.6037 9.9775 46.5 11.6407 46.5 13.4156V39.874C46.5 42.7428 44.1938 45.1182 41.2314 45.3005L14.675 46.9352C12.311 47.0807 10.026 46.0847 8.574 44.2759Z" fill="white"/>
<path d="M16.8741 20.8175V20.5128C16.8741 19.7405 17.4927 19.1 18.2899 19.0467L24.0969 18.659L32.1275 30.4847V20.1057L30.0605 19.8301V19.6854C30.0605 18.904 30.6932 18.2592 31.5006 18.2179L36.7843 17.9472V18.7076C36.7843 19.0645 36.5189 19.3698 36.1551 19.4314L34.8836 19.6464V36.455L33.2878 37.0038C31.9547 37.4622 30.4705 36.9715 29.7073 35.8199L21.911 24.0552V35.2839L24.3107 35.7432L24.2773 35.9657C24.1726 36.663 23.5706 37.1903 22.8424 37.2227L16.8741 37.4883C16.7952 36.7386 17.3571 36.0678 18.1323 35.9864L18.9174 35.9039V20.9323L16.8741 20.8175Z" fill="black"/>
<path fill-rule="evenodd" clip-rule="evenodd" d="M31.0143 4.89964L7.08716 6.53324C5.65394 6.63109 4.54297 7.78333 4.54297 9.17195V32.4443C4.54297 33.749 4.9921 35.0167 5.81961 36.0475L10.9786 42.4745C11.8128 43.5136 13.1254 44.0858 14.4835 44.0022L41.0399 42.3675C42.401 42.2837 43.4606 41.1924 43.4606 39.8742V13.4158C43.4606 12.6004 43.0488 11.8362 42.3574 11.3687L33.9506 5.6849C33.0939 5.10565 32.0573 4.82843 31.0143 4.89964ZM8.27366 9.53496C7.94087 9.28858 8.09925 8.77528 8.51731 8.7453L31.1752 7.12013C31.8971 7.06835 32.6145 7.26714 33.1983 7.68078L37.7445 10.9017C37.9171 11.0239 37.8361 11.2879 37.6224 11.2995L13.6278 12.6045C12.9016 12.644 12.1848 12.4307 11.6075 12.0032L8.27366 9.53496ZM12.5023 16.6955C12.5023 15.916 13.1321 15.2721 13.9374 15.2283L39.3065 13.8466C40.0914 13.8039 40.752 14.4075 40.752 15.1672V38.0774C40.752 38.8554 40.1245 39.4987 39.3208 39.5444L14.1123 40.9788C13.2388 41.0285 12.5023 40.3573 12.5023 39.5117V16.6955Z" fill="black"/>
</svg>
