<svg width="48" height="49" viewBox="0 0 48 49" fill="none" xmlns="http://www.w3.org/2000/svg">
<path d="M39.7503 22.9486C41.8212 22.9486 43.5 21.2698 43.5 19.1989V19.1989C43.5 17.128 41.8211 15.4492 39.7502 15.4492V15.4492C37.6791 15.4492 36 17.1282 36 19.1992V22.9486H39.7503ZM29.25 22.9486C31.3211 22.9486 33 21.2696 33 19.1986V8.69922C33 6.62815 31.3211 4.94922 29.25 4.94922V4.94922C27.1789 4.94922 25.5 6.62815 25.5 8.69922V19.1986C25.5 21.2696 27.1789 22.9486 29.25 22.9486V22.9486Z" fill="#2EB67D"/>
<path d="M8.24968 25.9499C6.17879 25.9499 4.5 27.6286 4.5 29.6995V29.6995C4.5 31.7704 6.17895 33.4492 8.24984 33.4492V33.4492C10.3209 33.4492 12 31.7703 12 29.6992V25.9499H8.24968ZM18.75 25.9499C16.6789 25.9499 15 27.6288 15 29.6999V40.1992C15 42.2703 16.6789 43.9492 18.75 43.9492V43.9492C20.8211 43.9492 22.5 42.2703 22.5 40.1992V29.6999C22.5 27.6288 20.8211 25.9499 18.75 25.9499V25.9499Z" fill="#E01E5A"/>
<path d="M25.5006 40.1995C25.5006 42.2704 27.1794 43.9492 29.2503 43.9492V43.9492C31.3212 43.9492 33 42.2703 33 40.1994V40.1994C33 38.1283 31.3211 36.4492 29.25 36.4492L25.5006 36.4492L25.5006 40.1995ZM25.5006 29.6992C25.5006 31.7703 27.1796 33.4492 29.2506 33.4492L39.75 33.4492C41.8211 33.4492 43.5 31.7703 43.5 29.6992V29.6992C43.5 27.6282 41.8211 25.9492 39.75 25.9492L29.2506 25.9492C27.1796 25.9492 25.5006 27.6282 25.5006 29.6992V29.6992Z" fill="#ECB22E"/>
<path d="M22.4994 8.6989C22.4994 6.62801 20.8206 4.94922 18.7497 4.94922V4.94922C16.6788 4.94922 15 6.62817 15 8.69906V8.69906C15 10.7701 16.6789 12.4492 18.75 12.4492L22.4994 12.4492L22.4994 8.6989ZM22.4994 19.1992C22.4994 17.1282 20.8204 15.4492 18.7494 15.4492L8.25 15.4492C6.17893 15.4492 4.5 17.1282 4.5 19.1992V19.1992C4.5 21.2703 6.17893 22.9492 8.25 22.9492L18.7494 22.9492C20.8204 22.9492 22.4994 21.2703 22.4994 19.1992V19.1992Z" fill="#36C5F0"/>
</svg>
