<svg xmlns="http://www.w3.org/2000/svg" width="48" height="49"><path d="M 12.178 3.449 L 35.697 3.449 C 38.838 3.449 41.406 5.892 41.487 8.956 L 42 28.463 L 40.88 40.766 C 40.638 43.417 38.363 45.449 35.635 45.449 L 12.184 45.449 C 9.436 45.449 7.15 43.387 6.935 40.714 L 6 29.105 L 6.387 8.995 C 6.446 5.915 9.021 3.449 12.178 3.449 Z M 11.777 10.404 L 35.97 10.404 C 36.833 10.404 37.536 11.08 37.549 11.921 L 37.834 29.509 C 37.845 30.185 37.317 30.754 36.626 30.809 L 32 31.179 C 30.771 31.277 29.825 32.279 29.825 33.483 L 29.825 38.918 C 29.825 40.053 28.882 40.973 27.719 40.973 L 20.15 40.973 C 18.987 40.973 18.044 40.053 18.044 38.918 L 18.044 33.483 C 18.044 32.279 17.098 31.277 15.868 31.179 L 11.235 30.808 C 10.547 30.753 10.02 30.189 10.026 29.516 L 10.197 11.931 C 10.205 11.085 10.91 10.404 11.777 10.404 Z" fill="rgb(34,116,229)"></path><path d="M 35.971 10.404 L 11.778 10.404 C 10.911 10.404 10.207 11.085 10.198 11.931 L 10.027 29.516 C 10.021 30.189 10.548 30.753 11.236 30.808 L 15.869 31.179 C 17.099 31.277 18.045 32.279 18.045 33.483 L 18.045 34.05 L 29.826 34.05 L 29.826 33.483 C 29.826 32.279 30.772 31.277 32.001 31.179 L 36.627 30.809 C 37.318 30.754 37.846 30.185 37.835 29.509 L 37.55 11.921 C 37.537 11.08 36.834 10.404 35.971 10.404 Z" fill="rgb(255,255,255)"></path><path d="M 29.824 34.051 L 29.824 38.919 C 29.824 40.054 28.881 40.974 27.718 40.974 L 20.149 40.974 C 18.986 40.974 18.043 40.054 18.043 38.919 L 18.043 34.051 Z" fill="rgb(190,194,200)"></path><path d="M 19.161 20.499 L 17.516 22.072 C 19.073 23.421 22.564 26.459 24.064 27.82 C 26.117 24.635 31.479 18.786 33.903 16.26 C 33.728 16.068 33.258 15.56 32.784 15.072 C 29.02 18.026 24.81 22.062 23.176 23.71 Z" fill="rgb(44,59,74)"></path></svg>